nColumns=19
nRows=63
DataType=double
version=3
OpenSimVersion=4.4-2022-07-23-0e9fedc
endheader
time	ground_force_1_vx	ground_force_1_vy	ground_force_1_vz	ground_force_1_px	ground_force_1_py	ground_force_1_pz	ground_moment_1_mx	ground_moment_1_my	ground_moment_1_mz	ground_force_2_vx	ground_force_2_vy	ground_force_2_vz	ground_force_2_px	ground_force_2_py	ground_force_2_pz	ground_moment_2_mx	ground_moment_2_my	ground_moment_2_mz
45	37.28432547	713.5657199	63.79172903	0.8125	0	0.2385	-84.82237636	-2.839209023	108.9286858	-3.28E-54	-2.29E-52	4.37E-54	0.8125	0	0.733	-1.31E-53	5.81E-55	-1.31E-52
45.01	39.7217112	717.7254393	63.76801056	0.8125	0	0.2385	-84.85237356	-2.14056121	105.3091094	-1.60E-50	-1.05E-48	2.00E-50	0.8125	0	0.733	-5.98E-50	2.71E-51	-5.97E-49
45.02	42.31846572	721.528194	63.74561916	0.8125	0	0.2385	-84.77956627	-1.450391282	101.6951072	-7.66E-47	-4.78E-45	9.12E-47	0.8125	0	0.733	-2.76E-46	1.33E-47	-2.73E-45
45.03	45.08909269	724.7653872	63.75166944	0.8125	0	0.2385	-84.56531638	-0.769133633	98.07699912	-3.19E-43	-2.18E-41	4.17E-43	0.8125	0	0.733	-1.25E-42	5.82E-44	-1.25E-41
45.04	48.07800862	727.2927214	63.84864151	0.8125	0	0.2385	-84.17498199	-0.101263962	94.4730876	-1.52E-39	-1.00E-37	1.90E-39	0.8125	0	0.733	-5.73E-39	2.61E-40	-5.69E-38
45.05	51.26030401	729.0101508	64.13511748	0.8125	0	0.2385	-83.57655555	0.549447193	90.88329909	-6.25E-36	-4.55E-34	8.60E-36	0.8125	0	0.733	-2.58E-35	1.12E-36	-2.60E-34
45.06	54.61167438	729.8339109	64.67206126	0.8125	0	0.2385	-82.74076742	1.181511975	87.33138316	-3.25E-32	-2.08E-30	4.03E-32	0.8125	0	0.733	-1.19E-31	5.63E-33	-1.19E-30
45.07	58.04940717	729.6629683	65.51145712	0.8125	0	0.2385	-81.64081383	1.793820811	83.8247281	-1.41E-28	-9.53E-27	1.80E-28	0.8125	0	0.733	-5.40E-28	2.45E-29	-5.42E-27
45.08	61.45862802	728.3577571	66.65289117	0.8125	0	0.2385	-80.25541866	2.37938466	80.38329102	-6.33E-25	-4.34E-23	8.23E-25	0.8125	0	0.733	-2.44E-24	1.05E-25	-2.47E-23
45.09	64.68734637	725.7777169	68.06596758	0.8125	0	0.2385	-78.57248922	2.925607358	77.0392104	-2.83E-21	-1.99E-19	3.78E-21	0.8125	0	0.733	-1.13E-20	5.19E-22	-1.13E-19
45.1	67.53522328	721.7943671	69.68861783	0.8125	0	0.2385	-76.5928853	3.414599771	73.85502537	-1.44E-17	-9.06E-16	1.74E-17	0.8125	0	0.733	-5.20E-17	2.36E-18	-5.16E-16
45.11	69.84614428	716.290877	71.40864437	0.8125	0	0.2385	-74.3347488	3.827947751	70.88933465	2.372947132	16.36130461	-0.114016021	0.8125	0	0.733	2.07749726	-0.527698091	3.429129521
45.12	71.46347027	709.0954786	73.04331657	0.8125	0	0.2385	-71.82818811	4.157451202	68.16673617	3.27282933	45.18073284	1.286087349	0.8125	0	0.733	7.091076293	-1.175439145	15.60339212
45.13	72.38495956	699.8789497	74.34351181	0.8125	0	0.2385	-69.10539147	4.405835384	65.65206788	3.007681325	87.94607898	2.798884159	0.8125	0	0.733	14.48415311	-1.567436478	33.71926926
45.14	72.64502704	688.0812445	75.01650909	0.8125	0	0.2385	-66.19039215	4.589412696	63.2371414	0.687430994	145.9212515	4.168820805	0.8125	0	0.733	24.44355487	-1.413559593	58.33791304
45.15	72.37088164	672.8584611	74.75499152	0.8125	0	0.2385	-63.08723651	4.730157589	60.77289132	-4.771168207	217.9358949	4.983450331	0.8125	0	0.733	36.72824095	-0.340768588	88.98312604
45.16	71.64290547	653.1243721	73.26573722	0.8125	0	0.2385	-59.77765472	4.848802792	58.07128062	-14.42747782	299.1074471	4.780949261	0.8125	0	0.733	50.4468832	2.008491346	123.6132544
45.17	70.45187871	627.6646183	70.34145072	0.8125	0	0.2385	-56.22168202	4.953840484	54.97547868	-27.87836385	380.1741672	2.819393164	0.8125	0	0.733	63.9852464	5.79310334	158.2745231
45.18	68.67937187	595.322331	65.97295105	0.8125	0	0.2385	-52.3693157	5.025173178	51.35295991	-42.79756335	450.586016	-2.099108037	0.8125	0	0.733	75.59949928	10.78075212	188.3248492
45.19	66.07285365	555.4824577	60.37973835	0.8125	0	0.2385	-48.17557141	5.027835581	47.15924027	-56.92116325	505.5714736	-9.579183244	0.8125	0	0.733	84.44217354	16.41467608	211.4764086
45.2	62.36656496	508.401779	53.97259152	0.8125	0	0.2385	-43.62742391	4.922409043	42.44584562	-69.35992446	546.2880996	-18.33565291	0.8125	0	0.733	90.69079111	22.18372078	228.0136033
45.21	57.43145001	455.0097698	47.33280732	0.8125	0	0.2385	-38.75135403	4.682941311	37.29009349	-79.27464798	576.8992935	-27.88983315	0.8125	0	0.733	95.04144005	27.696744	239.6037092
45.22	51.2780931	396.9518913	40.91791086	0.8125	0	0.2385	-33.62582619	4.307808851	31.84395753	-86.61152296	602.061691	-36.90922215	0.8125	0	0.733	98.32606867	32.54380792	248.2653902
45.23	43.96568336	336.365898	34.95461405	0.8125	0	0.2385	-28.38252344	3.803400228	26.28663024	-91.25633341	625.3540536	-44.80034324	0.8125	0	0.733	101.1608663	36.50207018	255.5349732
45.24	35.72277669	275.7631495	29.5922409	0.8125	0	0.2385	-23.19708011	3.17856106	20.83023927	-93.63676229	648.1491774	-51.35274057	0.8125	0	0.733	103.828058	39.4807166	262.1356788
45.25	26.94713834	217.7826394	24.84512728	0.8125	0	0.2385	-18.26872307	2.464541778	15.71160829	-94.04223921	670.7097641	-56.3785794	0.8125	0	0.733	106.3716184	41.52900826	268.1849783
45.26	18.29075875	164.8207202	20.7247904	0.8125	0	0.2385	-13.79208658	1.716071727	11.0935484	-92.95799861	692.472595	-60.5098363	0.8125	0	0.733	108.6900408	42.85025442	273.6173593
45.27	10.46117214	118.7170732	17.20348418	0.8125	0	0.2385	-9.91775539	1.009654788	7.107197149	-90.74068158	712.7251001	-64.00701034	0.8125	0	0.733	110.6423788	43.63291609	278.201776
45.28	4.070950043	80.38946711	14.19980345	0.8125	0	0.2385	-6.72980881	0.417802614	3.771701008	-87.75725102	730.3913605	-67.19687445	0.8125	0	0.733	112.0477782	44.04264168	281.6396495
45.29	-0.544300047	50.01752216	11.64817001	0.8125	0	0.2385	-4.240238311	-0.014804378	1.097617642	-84.41581083	744.4912943	-70.31400715	0.8125	0	0.733	112.7483249	44.18912704	283.6519002
45.3	-3.38293027	27.13136968	9.472340134	0.8125	0	0.2385	-2.403463201	-0.274029368	-0.968218767	-80.9580265	754.3346944	-73.15101043	0.8125	0	0.733	112.6574189	44.10726432	284.0009846
45.31	-4.600840857	10.89764723	7.64849234	0.8125	0	0.2385	-1.132721299	-0.377194669	-2.476763144	-77.60581964	759.7063813	-75.77842162	0.8125	0	0.733	111.7630546	43.81150413	282.6876897
45.32	-3.71E-16	2.21E-14	1.93E-15	0.8125	0	0.2385	-3.47E-16	-3.01E-17	-1.62E-15	-74.32105844	760.9095514	-77.92620715	0.8125	0	0.733	110.1530522	43.26460195	279.782794
45.33	-8.47E-20	4.83E-18	4.24E-19	0.8125	0	0.2385	-7.58E-20	-7.09E-21	-3.55E-19	-71.12602739	758.4916351	-79.50027706	0.8125	0	0.733	107.9590877	42.45216304	275.5207809
45.34	-1.81E-23	1.06E-21	9.43E-23	0.8125	0	0.2385	-1.65E-23	-1.46E-24	-7.85E-23	-67.95050721	753.196239	-80.61355919	0.8125	0	0.733	105.3313524	41.40121195	270.1582427
45.35	-4.17E-27	2.32E-25	2.05E-26	0.8125	0	0.2385	-3.64E-27	-3.44E-28	-1.71E-26	-64.81694869	745.6815276	-81.15249192	0.8125	0	0.733	102.4303854	40.12750497	263.9412536
45.36	-8.44E-31	5.08E-29	4.59E-30	0.8125	0	0.2385	-8.04E-31	-6.70E-32	-3.76E-30	-61.69847309	736.7847799	-81.29744256	0.8125	0	0.733	99.40674093	38.69326492	257.1701387
45.37	-1.87E-34	1.11E-32	9.80E-34	0.8125	0	0.2385	-1.74E-34	-1.53E-35	-8.23E-34	-58.64841832	727.0990312	-81.04192868	0.8125	0	0.733	96.40571068	37.14021468	250.0389836
45.38	-4.15E-38	2.44E-36	2.15E-37	0.8125	0	0.2385	-3.82E-38	-3.58E-39	-1.81E-37	-55.69562372	717.3175379	-80.43623753	0.8125	0	0.733	93.54269022	35.53097996	242.8032577
45.39	-9.06E-42	5.34E-40	4.60E-41	0.8125	0	0.2385	-8.39E-42	-7.45E-43	-3.95E-41	-52.95597853	707.8182222	-79.61150776	0.8125	0	0.733	90.90817652	33.92172392	235.5861432
45.4	-2.05E-45	1.17E-43	1.02E-44	0.8125	0	0.2385	-1.82E-45	-1.70E-46	-8.54E-45	-50.44359837	699.1273164	-78.52657561	0.8125	0	0.733	88.57959333	32.35022274	228.5709579
45.41	-4.30E-49	2.56E-47	2.25E-48	0.8125	0	0.2385	-4.00E-49	-3.57E-50	-1.90E-48	-48.28149593	691.5073277	-77.33809913	0.8125	0	0.733	86.6082251	30.85695294	221.8424039
45.42	-9.59E-53	5.61E-51	4.97E-52	0.8125	0	0.2385	-8.82E-53	-7.42E-54	-4.09E-52	-46.41952302	685.2574827	-76.10568441	0.8125	0	0.733	85.02862327	29.47157278	215.4823842
45.43	-2.12E-56	1.23E-54	1.10E-55	0.8125	0	0.2385	-1.93E-56	-1.82E-57	-9.01E-56	-44.8990914	680.4408997	-74.86361088	0.8125	0	0.733	83.85120194	28.2069891	209.4978856
45.44	-4.55E-60	2.69E-58	2.42E-59	0.8125	0	0.2385	-4.21E-60	-3.89E-61	-1.99E-59	-43.60093735	677.1245339	-73.71880036	0.8125	0	0.733	83.07107882	27.07552753	203.8745145
45.45	-1.05E-63	5.89E-62	5.19E-63	0.8125	0	0.2385	-9.23E-64	-8.96E-65	-4.33E-63	-42.47309646	675.2512296	-72.5855022	0.8125	0	0.733	82.68105121	26.05415951	198.5506196
45.46	-2.11E-67	1.29E-65	1.11E-66	0.8125	0	0.2385	-2.04E-67	-1.74E-68	-9.59E-67	-41.33468064	674.8208567	-71.47266511	0.8125	0	0.733	82.67533089	25.12256683	193.4333808
45.47	-4.64E-71	2.83E-69	2.51E-70	0.8125	0	0.2385	-4.39E-71	-4.17E-72	-2.07E-70	-40.03467807	675.8046028	-70.32461606	0.8125	0	0.733	83.05956211	24.24004263	188.4338407
45.48	-1.05E-74	6.19E-73	5.50E-74	0.8125	0	0.2385	-9.74E-75	-8.38E-76	-4.58E-74	-38.35191061	678.2634597	-69.05418907	0.8125	0	0.733	83.84986482	23.35816405	183.442632
45.49	-2.36E-78	1.34E-76	1.20E-77	0.8125	0	0.2385	-2.06E-78	-2.20E-79	-9.93E-78	-36.01696216	682.272056	-67.66079873	0.8125	0	0.733	85.07061015	22.42562491	178.3454206
45.5	-4.40E-76	-8.27E-75	3.79E-76	0.8125	0	0.2385	2.74E-76	-1.52E-76	2.98E-76	-32.73973002	688.0268143	-66.06179627	0.8125	0	0.733	86.76161708	21.3795053	173.0484171
45.51	-1.95E-72	-3.77E-71	1.73E-72	0.8125	0	0.2385	1.23E-72	-7.07E-73	1.36E-72	-28.21247753	695.8897938	-64.24841936	0.8125	0	0.733	88.97654864	20.16622394	167.4975311
45.52	-9.49E-69	-1.72E-67	8.02E-69	0.8125	0	0.2385	5.72E-69	-3.42E-69	6.28E-69	-22.2684775	706.3536359	-62.2161461	0.8125	0	0.733	91.7783169	18.74219577	161.7243855
45.53	-4.39E-65	-7.87E-64	3.62E-65	0.8125	0	0.2385	2.59E-65	-1.47E-65	2.85E-65	-14.86077826	719.9655099	-59.99708711	0.8125	0	0.733	95.20740001	17.09631181	155.8213849
45.54	-1.80E-61	-3.60E-60	1.67E-61	0.8125	0	0.2385	1.20E-61	-6.93E-62	1.29E-61	-6.220864537	736.9212445	-57.75194642	0.8125	0	0.733	99.23539441	15.26055327	149.9268993
45.55	-8.56E-58	-1.64E-56	7.60E-58	0.8125	0	0.2385	5.44E-58	-3.19E-58	5.91E-58	3.267016339	756.9639938	-55.66926026	0.8125	0	0.733	103.7320512	13.30844027	144.16629
45.56	-4.14E-54	-7.49E-53	3.53E-54	0.8125	0	0.2385	2.51E-54	-1.60E-54	2.74E-54	13.00492835	779.0699901	-54.01538968	0.8125	0	0.733	108.4536997	11.34153099	138.6308394
45.57	-1.82E-50	-3.42E-49	1.58E-50	0.8125	0	0.2385	1.13E-50	-7.31E-51	1.25E-50	22.37601085	801.7494145	-53.06481248	0.8125	0	0.733	113.0687433	9.472904884	133.3927919
45.58	-8.48E-47	-1.56E-45	7.10E-47	0.8125	0	0.2385	5.14E-47	-2.94E-47	5.57E-47	30.72448296	823.0108433	-52.9646073	0.8125	0	0.733	117.2025235	7.791919552	128.4237482
45.59	-4.09E-43	-7.13E-42	3.37E-43	0.8125	0	0.2385	2.39E-43	-1.50E-43	2.57E-43	37.59445865	840.8951739	-53.75279731	0.8125	0	0.733	120.4927377	6.366733324	123.6967918
45.6	-1.86E-39	-3.26E-38	1.54E-39	0.8125	0	0.2385	1.08E-39	-6.20E-40	1.18E-39	42.65722241	853.5165427	-55.26284527	0.8125	0	0.733	122.6462032	5.217607054	119.1036759
45.61	-7.81E-36	-1.48E-34	6.97E-36	0.8125	0	0.2385	4.94E-36	-2.82E-36	5.35E-36	45.89413678	859.5907439	-57.24557275	0.8125	0	0.733	123.4791815	4.340362588	114.5729652
45.62	-3.81E-32	-6.78E-31	3.01E-32	0.8125	0	0.2385	2.24E-32	-1.36E-32	2.43E-32	47.39466973	858.4364438	-59.41804128	0.8125	0	0.733	122.9462831	3.697305904	110.0147562
